# File created by Blade
# Date/Time:  Thu Sep 25 18:58:07 2014
# Frame Rate: 120.000 fps
#------------------------------------------------------
:FULLY-SPECIFIED
:DEGREES
1074
root 1.533065 32.960572 1.959584 5.970258 -1.164914 -0.650741
Spine -10.745167 7.588358 -1.594653
Head 7.494062 -11.657444 10.856805
LeftShoulder -13.916280 1.920090 38.715756
LeftArm 16.807755 -50.334743 -19.275186
LeftForeArm -5.245766 0.000000 17.288111
LeftHand -26.253401 -0.000000 1.775921
LeftHandThumb1 -26.253704 0.000000 33.147579
RightShoulder -23.706105 26.553806 -51.158853
RightArm 7.892824 26.846896 24.650932
RightForeArm -21.269368 -0.000000 18.408732
RightHand -15.047481 0.000000 4.056457
RightHandThumb1 -24.326973 -0.000000 -32.862282
LeftUpLeg 1.040566 9.284996 4.503100
LeftLeg -2.231351 -0.000000 0.000000
LeftFoot -7.308620 -0.449167 -17.491127
LeftToeBase 8.287739 -0.000000 -0.000000
RightUpLeg 0.056458 -11.007186 -6.416437
RightLeg -0.055660 -0.000000 0.000000
RightFoot -3.301780 1.178129 3.890157
RightToeBase -3.595215 -0.000000 0.000000
1075
root 1.532113 32.962674 1.961106 5.894202 -1.152963 -0.644423
Spine -10.753723 7.556197 -1.603710
Head 7.659747 -11.628066 10.817882
LeftShoulder -13.843170 1.254265 39.229360
LeftArm 17.013468 -50.555262 -18.938779
LeftForeArm -5.021161 0.000000 17.533026
LeftHand -26.317045 0.000000 1.734734
LeftHandThumb1 -26.253704 0.000000 33.147579
RightShoulder -23.806518 26.801207 -51.544787
RightArm 8.784567 27.532159 24.808219
RightForeArm -20.871103 -0.000000 18.653292
RightHand -15.195700 -0.000000 3.724847
RightHandThumb1 -24.326973 -0.000000 -32.862282
LeftUpLeg 1.117574 9.263163 4.512797
LeftLeg -2.233769 -0.000000 0.000000
LeftFoot -7.280088 -0.437273 -17.481670
LeftToeBase 8.270836 -0.000000 -0.000000
RightUpLeg 0.121908 -10.974055 -6.434028
RightLeg -0.020436 -0.000000 0.000000
RightFoot -3.305004 1.139724 3.878482
RightToeBase -3.610673 -0.000000 0.000000
1076
root 1.531726 32.965146 1.964109 5.815074 -1.150857 -0.632351
Spine -10.764436 7.536921 -1.622477
Head 7.826524 -11.620289 10.748937
LeftShoulder -13.761138 0.740017 39.683110
LeftArm 17.330414 -50.911450 -18.645563
LeftForeArm -4.879517 -0.000000 17.743869
LeftHand -26.265137 -0.000000 1.596540
LeftHandThumb1 -26.253704 0.000000 33.147579
RightShoulder -23.929275 26.935257 -51.875920
RightArm 9.850862 28.194396 25.043583
RightForeArm -20.516134 -0.000000 18.816989
RightHand -15.376377 0.000000 3.324258
RightHandThumb1 -24.326973 -0.000000 -32.862282
LeftUpLeg 1.205083 9.259706 4.510298
LeftLeg -2.234427 -0.000000 0.000000
LeftFoot -7.210145 -0.431729 -17.275389
LeftToeBase 8.032129 -0.000000 -0.000000
RightUpLeg 0.194746 -10.937922 -6.461090
RightLeg 0.003755 -0.000000 -0.000000
RightFoot -3.310724 1.123726 3.898651
RightToeBase -3.587647 -0.000000 0.000000
1077
root 1.526353 32.967637 1.961593 5.792135 -1.137080 -0.661377
Spine -10.843666 7.514176 -1.615004
Head 8.010122 -11.597550 10.707936
LeftShoulder -13.712893 0.171854 40.175538
LeftArm 17.788889 -51.185054 -18.442025
LeftForeArm -4.910042 -0.000000 17.857040
LeftHand -26.221768 -0.000000 1.643718
LeftHandThumb1 -26.253704 0.000000 33.147579
RightShoulder -23.952049 27.190835 -52.267729
RightArm 10.627075 28.799717 25.188983
RightForeArm -20.073836 0.000000 19.121604
RightHand -15.462266 -0.000000 3.115823
RightHandThumb1 -24.326973 -0.000000 -32.862282
LeftUpLeg 1.212514 9.268350 4.556120
LeftLeg -2.219826 -0.000000 0.000000
LeftFoot -7.247717 -0.448542 -17.460473
LeftToeBase 8.278884 -0.000000 -0.000000
RightUpLeg 0.185183 -10.832779 -6.428170
RightLeg 0.076093 -0.000000 -0.000000
RightFoot -3.343662 1.033167 3.936836
RightToeBase -3.529265 -0.000000 0.000000
